<svg width="57" height="50" viewBox="0 0 57 82" fill="none"><path d="M1.70521 8.88162V8.00233H3.73187C4.01067 8.00233 4.2573 7.94514 4.47177 7.83076C4.69338 7.71638 4.86495 7.55554 4.98647 7.34822C5.11515 7.14091 5.17949 6.89428 5.17949 6.60833C5.17949 6.32238 5.11515 6.07575 4.98647 5.86844C4.86495 5.66113 4.69338 5.50028 4.47177 5.3859C4.2573 5.27152 4.01067 5.21433 3.73187 5.21433H1.70521V4.33504H3.79621C4.25373 4.33504 4.66121 4.42797 5.01864 4.61384C5.38323 4.79971 5.66918 5.06421 5.87649 5.40735C6.09095 5.74334 6.19818 6.14366 6.19818 6.60833C6.19818 7.06585 6.09095 7.46618 5.87649 7.80932C5.66918 8.14531 5.38323 8.40981 5.01864 8.60282C4.66121 8.78869 4.25373 8.88162 3.79621 8.88162H1.70521ZM1.02966 11.7769V4.33504H2.03763V11.7769H1.02966ZM9.39475 11.8841C8.89434 11.8841 8.44397 11.7661 8.04364 11.5302C7.64331 11.2943 7.32519 10.9762 7.08929 10.5759C6.85338 10.1684 6.73542 9.71445 6.73542 9.21404C6.73542 8.72078 6.85338 8.27756 7.08929 7.88438C7.32519 7.48405 7.64331 7.16593 8.04364 6.93002C8.44397 6.69412 8.89434 6.57616 9.39475 6.57616C9.88801 6.57616 10.3348 6.69412 10.7351 6.93002C11.1426 7.15878 11.4643 7.47333 11.7002 7.87365C11.9361 8.27398 12.0541 8.72078 12.0541 9.21404C12.0541 9.71445 11.9361 10.1684 11.7002 10.5759C11.4643 10.9762 11.1426 11.2943 10.7351 11.5302C10.3348 11.7661 9.88801 11.8841 9.39475 11.8841ZM9.39475 10.9512C9.71644 10.9512 10.0024 10.8761 10.2526 10.726C10.5028 10.5759 10.6994 10.3721 10.8424 10.1148C10.9853 9.85028 11.0568 9.55003 11.0568 9.21404C11.0568 8.8852 10.9818 8.5921 10.8316 8.33475C10.6887 8.07739 10.4921 7.87723 10.2419 7.73426C9.99881 7.58413 9.71644 7.50907 9.39475 7.50907C9.07306 7.50907 8.78711 7.58413 8.5369 7.73426C8.2867 7.87723 8.09011 8.07739 7.94713 8.33475C7.80416 8.5921 7.73267 8.8852 7.73267 9.21404C7.73267 9.55003 7.80416 9.85028 7.94713 10.1148C8.09011 10.3721 8.2867 10.5759 8.5369 10.726C8.78711 10.8761 9.07306 10.9512 9.39475 10.9512ZM14.4532 11.7769L12.4373 6.68339H13.4452L14.9036 10.6509H14.5819L16.0295 6.68339H16.5871L18.0347 10.6509H17.713L19.1713 6.68339H20.1793L18.1741 11.7769H17.6058L16.1367 7.92727H16.4906L15.0108 11.7769H14.4532ZM23.2496 11.8841C22.7421 11.8841 22.2846 11.7697 21.8771 11.5409C21.4696 11.305 21.1479 10.9869 20.912 10.5866C20.6761 10.1863 20.5581 9.73232 20.5581 9.22476C20.5581 8.72435 20.6725 8.27398 20.9013 7.87365C21.1372 7.47333 21.4517 7.15878 21.8449 6.93002C22.2452 6.69412 22.692 6.57616 23.1853 6.57616C23.6571 6.57616 24.0717 6.68339 24.4292 6.89785C24.7938 7.11232 25.0761 7.40899 25.2763 7.78787C25.4836 8.16675 25.5873 8.59568 25.5873 9.07464C25.5873 9.14613 25.5837 9.22476 25.5765 9.31055C25.5694 9.38918 25.5551 9.48212 25.5337 9.58935H21.2337V8.78512H25.0189L24.6651 9.09609C24.6651 8.75295 24.6043 8.46342 24.4828 8.22752C24.3613 7.98446 24.1897 7.79859 23.9681 7.66992C23.7465 7.53409 23.4784 7.46618 23.1639 7.46618C22.835 7.46618 22.5455 7.53767 22.2953 7.68064C22.0451 7.82361 21.8521 8.02378 21.7162 8.28113C21.5804 8.53849 21.5125 8.84231 21.5125 9.19259C21.5125 9.55003 21.584 9.86457 21.727 10.1362C21.8699 10.4007 22.0737 10.608 22.3382 10.7582C22.6027 10.9011 22.9065 10.9726 23.2496 10.9726C23.5356 10.9726 23.7965 10.9226 24.0324 10.8225C24.2755 10.7224 24.4828 10.5723 24.6544 10.3721L25.2763 11.0048C25.0332 11.2907 24.733 11.5088 24.3756 11.6589C24.0253 11.809 23.65 11.8841 23.2496 11.8841ZM26.6396 11.7769V6.68339H27.6046V11.7769H26.6396ZM27.6046 8.8709L27.24 8.71006C27.24 8.05952 27.3902 7.54124 27.6904 7.15521C27.9907 6.76918 28.4232 6.57616 28.9879 6.57616C29.2453 6.57616 29.4776 6.62263 29.6849 6.71556C29.8922 6.80135 30.0852 6.9479 30.264 7.15521L29.6313 7.80932C29.5241 7.69494 29.4061 7.61273 29.2774 7.56269C29.1488 7.51264 28.9986 7.48762 28.8271 7.48762C28.4696 7.48762 28.1765 7.602 27.9478 7.83076C27.719 8.05952 27.6046 8.40623 27.6046 8.8709ZM33.135 11.8841C32.6274 11.8841 32.1699 11.7697 31.7624 11.5409C31.3549 11.305 31.0332 10.9869 30.7973 10.5866C30.5614 10.1863 30.4435 9.73232 30.4435 9.22476C30.4435 8.72435 30.5579 8.27398 30.7866 7.87365C31.0225 7.47333 31.3371 7.15878 31.7302 6.93002C32.1306 6.69412 32.5774 6.57616 33.0706 6.57616C33.5424 6.57616 33.9571 6.68339 34.3145 6.89785C34.6791 7.11232 34.9615 7.40899 35.1616 7.78787C35.3689 8.16675 35.4726 8.59568 35.4726 9.07464C35.4726 9.14613 35.469 9.22476 35.4619 9.31055C35.4547 9.38918 35.4404 9.48212 35.419 9.58935H31.119V8.78512H34.9043L34.5504 9.09609C34.5504 8.75295 34.4897 8.46342 34.3681 8.22752C34.2466 7.98446 34.075 7.79859 33.8534 7.66992C33.6318 7.53409 33.3637 7.46618 33.0492 7.46618C32.7203 7.46618 32.4308 7.53767 32.1806 7.68064C31.9304 7.82361 31.7374 8.02378 31.6016 8.28113C31.4657 8.53849 31.3978 8.84231 31.3978 9.19259C31.3978 9.55003 31.4693 9.86457 31.6123 10.1362C31.7553 10.4007 31.959 10.608 32.2235 10.7582C32.488 10.9011 32.7918 10.9726 33.135 10.9726C33.4209 10.9726 33.6818 10.9226 33.9178 10.8225C34.1608 10.7224 34.3681 10.5723 34.5397 10.3721L35.1616 11.0048C34.9186 11.2907 34.6183 11.5088 34.2609 11.6589C33.9106 11.809 33.5353 11.8841 33.135 11.8841ZM38.6802 11.8841C38.2084 11.8841 37.7866 11.7697 37.4149 11.5409C37.0432 11.305 36.7465 10.9869 36.5249 10.5866C36.3104 10.1863 36.2032 9.7359 36.2032 9.23549C36.2032 8.73508 36.3104 8.28471 36.5249 7.88438C36.7465 7.48405 37.0432 7.16593 37.4149 6.93002C37.7866 6.69412 38.2084 6.57616 38.6802 6.57616C39.0591 6.57616 39.4023 6.65837 39.7096 6.82279C40.017 6.98007 40.2637 7.20168 40.4495 7.48762C40.6426 7.76642 40.7498 8.09169 40.7712 8.46342V9.99682C40.7498 10.3614 40.6461 10.6867 40.4603 10.9726C40.2744 11.2586 40.0278 11.4838 39.7204 11.6482C39.413 11.8055 39.0663 11.8841 38.6802 11.8841ZM38.8411 10.9726C39.1628 10.9726 39.4416 10.8976 39.6775 10.7474C39.9205 10.5973 40.11 10.3936 40.2458 10.1362C40.3816 9.87172 40.4495 9.57148 40.4495 9.23549C40.4495 8.8852 40.3781 8.58138 40.2351 8.32402C40.0993 8.06667 39.9098 7.86293 39.6668 7.71281C39.4308 7.56269 39.152 7.48762 38.8304 7.48762C38.5087 7.48762 38.2263 7.56269 37.9832 7.71281C37.7402 7.86293 37.5472 8.07024 37.4042 8.33475C37.2684 8.5921 37.2004 8.88877 37.2004 9.22476C37.2004 9.5679 37.2684 9.87172 37.4042 10.1362C37.5472 10.3936 37.7402 10.5973 37.9832 10.7474C38.2334 10.8976 38.5194 10.9726 38.8411 10.9726ZM41.361 11.7769H40.3852V10.4043L40.5675 9.16042L40.3852 7.92727V4.12058H41.361V11.7769ZM47.6773 11.8841C47.2913 11.8841 46.941 11.8055 46.6264 11.6482C46.3191 11.4838 46.0724 11.2586 45.8866 10.9726C45.7007 10.6867 45.597 10.3614 45.5756 9.99682V8.46342C45.597 8.09169 45.7007 7.76642 45.8866 7.48762C46.0796 7.20168 46.3298 6.98007 46.6372 6.82279C46.9517 6.65837 47.2984 6.57616 47.6773 6.57616C48.142 6.57616 48.5602 6.69412 48.9319 6.93002C49.3108 7.16593 49.6075 7.48405 49.8219 7.88438C50.0364 8.28471 50.1436 8.73508 50.1436 9.23549C50.1436 9.7359 50.0364 10.1863 49.8219 10.5866C49.6075 10.9869 49.3108 11.305 48.9319 11.5409C48.5602 11.7697 48.142 11.8841 47.6773 11.8841ZM47.5165 10.9726C47.8382 10.9726 48.1205 10.8976 48.3636 10.7474C48.6066 10.5973 48.7997 10.3936 48.9426 10.1362C49.0856 9.87172 49.1571 9.5679 49.1571 9.22476C49.1571 8.88877 49.0856 8.58853 48.9426 8.32402C48.7997 8.05952 48.6066 7.85578 48.3636 7.71281C48.1205 7.56269 47.8417 7.48762 47.5272 7.48762C47.2055 7.48762 46.9231 7.56269 46.6801 7.71281C46.437 7.85578 46.2476 8.05952 46.1117 8.32402C45.9759 8.58853 45.908 8.89235 45.908 9.23549C45.908 9.57148 45.9723 9.87172 46.101 10.1362C46.2368 10.3936 46.4263 10.5973 46.6693 10.7474C46.9195 10.8976 47.2019 10.9726 47.5165 10.9726ZM44.9965 11.7769V4.12058H45.9616V7.92727L45.7793 9.16042L45.9616 10.4043V11.7769H44.9965ZM52.722 11.8197L50.5131 6.68339H51.5854L53.226 10.7045H52.8829L54.6093 6.68339H55.6816L53.3011 11.8197H52.722ZM51.2637 13.9107L52.7649 10.8332L53.3011 11.8197L52.336 13.9107H51.2637Z" fill="#202020"></path><g clip-path="url(#clip0_289_3757)"><mask id="mask0_289_3757" maskUnits="userSpaceOnUse" x="0" y="18" width="56" height="28" style="mask-type: luminance;"><path d="M0 18.7769H55.9715V45.5111H0V18.7769Z" fill="white"></path></mask><g mask="url(#mask0_289_3757)"><path d="M54.3442 43.8538L55.9715 45.5104H0L1.631 43.8538H54.3442Z" fill="#F39F13"></path><path d="M1.63076 43.8543L-0.000244141 45.5109V18.7771L1.63076 20.4346V43.8543Z" fill="#EB6E1F"></path><path d="M1.63076 20.4344L-0.000244141 18.7769H55.9717L54.3444 20.4344H1.63076Z" fill="#EA6720"></path><path d="M54.3425 20.4344L55.9726 18.7769V45.5106L54.3425 43.8535V20.4344Z" fill="#F39C15"></path><path d="M54.3421 43.8539H1.62793V20.4338H54.3426L54.3421 43.8539Z" fill="#EC731D"></path></g><mask id="mask1_289_3757" maskUnits="userSpaceOnUse" x="0" y="46" width="57" height="28" style="mask-type: luminance;"><path d="M0.167236 46.7195H56.1387V73.4537H0.167236V46.7195Z" fill="white"></path></mask><g mask="url(#mask1_289_3757)"><path d="M54.5112 71.7964L56.1412 73.4535H0.166504L1.79374 71.7964H54.5112Z" fill="#7F3C8C"></path><path d="M1.79566 71.7966L0.16748 73.4537V46.7195L1.79566 48.3761V71.7966Z" fill="#48327E"></path><path d="M1.79566 48.3761L0.16748 46.7195H56.1408L54.5108 48.3761H1.79566Z" fill="#593583"></path><path d="M54.5112 48.3761L56.1375 46.7195V73.4537L54.5112 71.7966V48.3761Z" fill="#843D8D"></path><path d="M54.507 71.797H1.79468V48.3765H54.5074L54.507 71.797Z" fill="#663785"></path></g><path d="M29.7857 66.7021L27.3526 66.754C25.0578 60.001 23.2556 54.9231 20.0491 46.616L25.8213 46.7931L29.7706 57.4311C32.5881 50.1214 33.2358 47.9274 33.6837 46.6552L36.8944 46.7336C36.8944 47.1014 35.5212 50.6611 34.2623 54.1302L29.7857 66.7021Z" fill="#3F2D5A" fill-opacity="0.75"></path><path d="M41.8903 26.2953C41.0699 26.2953 39.2245 26.2197 36.3542 26.0686L34.3422 25.9836V27.5722C36.652 28.1959 38.0122 28.6681 38.4228 28.9889C38.6937 29.1986 38.8499 29.5249 38.8428 29.8687C38.8397 30.003 38.8209 30.1364 38.7869 30.2663C38.6385 30.9665 37.4816 34.524 35.316 40.9388C34.8142 42.4384 34.287 43.9769 33.7344 45.5545H36.9183C39.6362 38.0853 41.4147 33.3864 42.254 31.4578C42.8135 30.1525 43.3539 29.3061 43.8751 28.9185C44.3963 28.531 45.6267 28.0817 47.5661 27.5708V25.9822C45.3648 26.1906 43.4729 26.295 41.8903 26.2953ZM19.8043 30.5232C19.7526 30.3192 19.7244 30.11 19.7211 29.8994C19.7248 29.7139 19.7709 29.5318 19.8557 29.367C19.9405 29.2022 20.0618 29.0592 20.2103 28.9488C20.5371 28.6746 21.6138 28.3105 23.4403 27.8565L24.193 27.6581V25.9841C20.7065 26.1915 18.0603 26.2954 16.2544 26.2957C14.9855 26.2957 12.3385 26.1919 8.31348 25.9841V27.6581C10.6986 28.3382 12.087 28.8156 12.4787 29.0904C12.9007 29.3993 13.245 29.8026 13.4845 30.2682C13.8957 31.0442 15.5546 35.1963 18.4612 42.7244L19.5461 45.5578H24.9711L23.9921 42.8155C21.5352 36.0021 20.1393 31.9045 19.8043 30.5227V30.5232Z" fill="#DA3625"></path><path d="M28.6493 65.0045H26.8302C24.4466 57.9839 21.5374 50.07 18.1026 41.2628C15.2386 33.9274 13.6048 29.8827 13.2012 29.1287C12.9645 28.6748 12.6264 28.282 12.2133 27.9812C11.8266 27.7145 10.459 27.2495 8.1106 26.5862V24.9556C12.0754 25.1586 14.6816 25.2597 15.9292 25.2587C17.7081 25.2587 20.3148 25.1577 23.7493 24.9556V26.5862L23.006 26.7798C21.2064 27.2225 20.1461 27.5771 19.8249 27.8438C19.6791 27.9505 19.5597 28.0895 19.476 28.25C19.3923 28.4105 19.3466 28.5882 19.3422 28.7693C19.3454 28.9748 19.3735 29.179 19.426 29.3776C19.7559 30.7231 21.1311 34.714 23.5517 41.3502L28.7759 55.811C31.0359 49.9499 33.0117 44.5214 34.7034 39.5255C36.836 33.2765 37.9759 29.8109 38.123 29.1287C38.1554 29.0026 38.1738 28.8728 38.1771 28.7424C38.1841 28.4067 38.0298 28.0879 37.7626 27.8853C37.3596 27.5705 36.0203 27.1099 33.7446 26.5036V24.9556C33.8541 24.9556 34.5147 24.9833 35.7266 25.0387C38.5533 25.186 40.3707 25.2594 41.1789 25.2587C42.7401 25.2587 44.6027 25.1577 46.7667 24.9556V26.5031C44.8602 27.0002 43.6492 27.4378 43.1336 27.8159C42.618 28.194 42.0856 29.0184 41.5364 30.289C40.4174 32.8315 37.6002 40.3311 33.0846 52.7878L28.6493 65.0045Z" fill="#FEFEFE"></path><path d="M28.29 64.7546H26.4736C24.3152 58.4049 21.7288 51.3241 18.7142 43.512C18.5646 43.1205 23.9507 43.1984 23.9507 43.1984L28.4198 55.5616L32.9543 43.3042C33.1016 42.8849 36.0912 43.3179 36.0912 43.3179L32.7257 52.5393L28.29 64.7546Z" fill="#FEFEFE"></path><path fill-rule="evenodd" clip-rule="evenodd" d="M37.9421 37.0262H37.7069V36.682L37.6923 36.401C37.6791 36.1839 37.6433 35.9688 37.5855 35.7592L37.403 35.1855C37.3468 35.034 37.284 34.8851 37.2148 34.7392C37.1697 34.6452 37.1182 34.5545 37.0605 34.4677L36.766 34.0398L36.6291 33.8627C36.6164 33.8467 36.6141 33.8249 36.6221 33.8065L36.7877 33.4013L37.0229 32.8205L37.0699 32.7124L37.1852 32.8611L37.5042 33.3159C37.5729 33.4274 37.6333 33.5439 37.6848 33.6644L37.8607 34.1442C37.9175 34.3211 37.962 34.5018 37.9939 34.6849L38.0466 34.9947C38.0584 35.0752 38.0648 35.1565 38.0659 35.2379L38.0781 35.8046C38.0781 35.9108 38.0626 36.0175 38.0532 36.1233L38.0334 36.3462L38.0019 36.58L37.9741 36.7778L37.9412 37.0012C37.9411 37.0096 37.9414 37.0179 37.9421 37.0262ZM37.3635 27.3817H37.2464V27.3647V27.2075L37.2398 27.0658C37.2331 26.9556 37.2148 26.8463 37.1852 26.74L37.0911 26.4496L36.997 26.2224C36.9736 26.1748 36.9469 26.1289 36.9171 26.085L36.7679 25.8678L36.6997 25.778C36.6903 25.7714 36.688 25.7587 36.6945 25.7492L36.7792 25.5438L36.8973 25.2491C36.9039 25.2312 36.9114 25.2142 36.9208 25.1948L36.9792 25.2699L37.141 25.5008C37.1765 25.5576 37.2079 25.6167 37.2351 25.6779L37.3235 25.9216C37.3522 26.0112 37.3747 26.1027 37.3908 26.1955L37.4185 26.3523L37.4284 26.4755L37.4355 26.7622C37.4355 26.8155 37.4275 26.8698 37.4232 26.9237L37.412 27.0365L37.3974 27.1551L37.3818 27.2557L37.3658 27.3685L37.3635 27.3817ZM39.0655 30.7455H38.9503V30.7285V30.5712C38.9501 30.5239 38.9473 30.4766 38.9418 30.4296C38.9357 30.3194 38.9181 30.2102 38.8891 30.1037L38.795 29.8133C38.7679 29.736 38.7365 29.6604 38.7009 29.5866C38.6781 29.5387 38.6517 29.4926 38.6219 29.4487L38.4723 29.232C38.4516 29.2003 38.4286 29.1701 38.4032 29.1422C38.3961 29.1342 38.3947 29.1224 38.3994 29.113L38.4827 28.908L38.6022 28.6133L38.6261 28.5586L38.6835 28.6336L38.8458 28.8646C38.8818 28.9204 38.9124 28.9795 38.9371 29.0412L39.0279 29.2849C39.0567 29.3743 39.0792 29.4657 39.0952 29.5583L39.1215 29.7155C39.1275 29.7565 39.1308 29.7979 39.1314 29.8393L39.1375 30.1254C39.1375 30.1797 39.1281 30.2336 39.1257 30.2869L39.1159 30.4003C39.1121 30.4381 39.1046 30.4791 39.0975 30.5183L39.0843 30.6189L39.066 30.7318L39.0655 30.7455ZM20.4114 39.4101H20.1192C20.1192 39.395 20.1159 39.3813 20.1159 39.368V38.9756C20.1137 38.8572 20.1081 38.739 20.099 38.621C20.0826 38.3467 20.0374 38.0749 19.964 37.8101L19.733 37.0853C19.6631 36.8942 19.5846 36.7065 19.4978 36.5224C19.4403 36.4032 19.3744 36.2883 19.3007 36.1786L18.9309 35.6383L18.7597 35.4145C18.7509 35.405 18.7452 35.3931 18.7431 35.3804C18.741 35.3676 18.7427 35.3545 18.7479 35.3427L18.9568 34.8317L19.2517 34.0974L19.3101 33.9614L19.4559 34.1503L19.8581 34.725C19.9462 34.865 20.0222 35.0122 20.0853 35.1651C20.17 35.3635 20.2406 35.5665 20.3088 35.771C20.3822 35.9944 20.4386 36.2229 20.4777 36.4548L20.5435 36.8458L20.5699 37.1523L20.5849 37.8663C20.5849 38.0005 20.5661 38.1346 20.5539 38.2687L20.5261 38.552L20.4885 38.8481L20.4523 39.0984L20.4114 39.3817C20.4109 39.3912 20.4109 39.4006 20.4114 39.4101Z" fill="#E95721"></path><path fill-rule="evenodd" clip-rule="evenodd" d="M25.6314 51.8127H25.4211C25.4192 51.8024 25.4183 51.792 25.4183 51.7815V51.4982L25.4056 51.2389C25.3938 51.0387 25.3609 50.8408 25.3073 50.6477L25.1384 50.1197C25.0884 49.9801 25.0314 49.8431 24.9676 49.7093C24.9261 49.6223 24.8779 49.5388 24.8232 49.4595L24.555 49.0657L24.4299 48.9037C24.4158 48.89 24.412 48.8683 24.4214 48.8508L24.5739 48.4782L24.7879 47.9432L24.8312 47.844L24.937 47.9809L25.2311 48.3993C25.2947 48.502 25.35 48.6095 25.3966 48.7209C25.4573 48.8626 25.5086 49.0128 25.5585 49.1625C25.6123 49.3249 25.6538 49.4911 25.6827 49.6597L25.7297 49.9431C25.7405 50.0172 25.7471 50.0923 25.7499 50.1674L25.7617 50.6869C25.7617 50.7846 25.7471 50.8828 25.7368 50.9801L25.7194 51.1855L25.6902 51.4009C25.6811 51.462 25.6728 51.5226 25.6653 51.5827L25.6333 51.7886C25.6322 51.7966 25.6316 51.8046 25.6314 51.8127ZM31.5114 51.8368H31.3895V51.6554C31.3895 51.6082 31.3853 51.5567 31.3811 51.5081C31.3745 51.3943 31.3557 51.2809 31.326 51.1709L31.2282 50.8691C31.2004 50.7895 31.1682 50.7114 31.1317 50.6354C31.1079 50.586 31.0802 50.5386 31.0489 50.4937L30.896 50.2689L30.8217 50.1745C30.817 50.165 30.817 50.1537 30.8217 50.1443L30.9102 49.9313L31.0329 49.6257C31.0396 49.6067 31.0475 49.5881 31.0565 49.57L31.1176 49.647L31.2841 49.8859C31.3194 49.945 31.3509 50.0064 31.3782 50.0692L31.4723 50.3223C31.5028 50.4149 31.5267 50.5096 31.5438 50.6056L31.5706 50.7676L31.581 50.8961L31.5866 51.1931C31.5866 51.2483 31.5796 51.3041 31.5753 51.3598L31.5641 51.4764L31.5467 51.6002L31.5335 51.7041L31.5161 51.8216C31.5137 51.8264 31.5123 51.8316 31.5114 51.8368Z" fill="#56306B"></path><path d="M15.541 29.0853C15.8479 29.382 16.1328 29.7009 16.3934 30.0392C16.529 30.2202 16.6172 30.4323 16.6501 30.6563C16.6829 30.8802 16.6594 31.1089 16.5816 31.3214C16.5816 31.3214 16.4621 31.7294 15.7292 32.0297C15.4347 32.1856 15.0701 32.0854 14.8951 31.8012C14.8951 31.8012 14.6538 31.5013 15.1844 31.1244C15.4987 30.9374 15.9009 30.9993 16.1446 31.2727C16.1446 31.2727 16.4668 31.1032 16.2697 30.5941C15.9431 30.1459 15.5641 29.7388 15.1407 29.3814C15.1407 29.3814 14.6081 28.9687 14.9915 28.5748C15.0635 28.5021 15.1656 28.4681 15.2667 28.4842C15.3679 28.5002 15.4549 28.5635 15.501 28.6551C15.5413 28.7185 15.5659 28.7905 15.5729 28.8654C15.5798 28.9402 15.5689 29.0156 15.541 29.0853ZM38.5777 31.2789C38.8357 31.5292 39.0757 31.7975 39.2961 32.0817C39.5275 32.3919 39.5868 32.7985 39.4537 33.1626C39.4537 33.1626 39.3525 33.5064 38.7353 33.7595C38.4865 33.8922 38.1774 33.8082 38.0297 33.5668C38.0297 33.5668 37.8255 33.3137 38.2724 32.9964C38.401 32.9195 38.5521 32.8899 38.7 32.9126C38.8479 32.9354 38.9833 33.0091 39.083 33.1211C39.083 33.1211 39.3549 32.9794 39.1893 32.5487C38.9122 32.172 38.5926 31.829 38.2367 31.5263C38.2367 31.5263 37.7884 31.1787 38.113 30.8453C38.1732 30.7844 38.2593 30.7561 38.3439 30.7698C38.3857 30.7766 38.4252 30.7933 38.4593 30.8184C38.4934 30.8435 38.5211 30.8764 38.5401 30.9143C38.5751 30.9675 38.5968 31.0285 38.6034 31.092C38.6099 31.1554 38.6011 31.2195 38.5777 31.2789ZM38.5194 25.8788C38.7698 26.1213 39.002 26.3818 39.2142 26.6585C39.3253 26.806 39.3977 26.9792 39.4249 27.1621C39.452 27.345 39.4329 27.5318 39.3695 27.7055C39.3695 27.7055 39.2702 28.0388 38.6728 28.2844C38.5564 28.3459 38.421 28.3606 38.2942 28.3255C38.1675 28.2904 38.0587 28.2082 37.9902 28.0955C37.9902 28.0955 37.7921 27.8504 38.2254 27.543C38.4818 27.3895 38.8111 27.4401 39.0101 27.6634C39.0101 27.6634 39.2726 27.5255 39.1117 27.109C38.8444 26.7425 38.5342 26.4095 38.1878 26.1173C38.1878 26.1173 37.7549 25.7806 38.0692 25.4562C38.098 25.4266 38.1335 25.4044 38.1727 25.3914C38.2118 25.3783 38.2535 25.3749 38.2942 25.3813C38.335 25.3877 38.3736 25.4038 38.4069 25.4283C38.4401 25.4527 38.4671 25.4848 38.4855 25.5218C38.5194 25.5742 38.5402 25.634 38.5461 25.6962C38.552 25.7583 38.5429 25.821 38.5194 25.8788ZM36.3375 38.8096C36.5017 38.9688 36.6546 39.1397 36.7943 39.321C36.867 39.4181 36.9145 39.5319 36.9325 39.652C36.9505 39.7721 36.9384 39.8948 36.8973 40.0091C36.8973 40.0091 36.831 40.2282 36.4387 40.3892C36.2801 40.4733 36.0844 40.4195 35.9903 40.2665C35.9903 40.2665 35.861 40.1059 36.1465 39.9028C36.2282 39.8541 36.3242 39.8354 36.4181 39.85C36.512 39.8645 36.598 39.9114 36.6612 39.9826C36.6612 39.9826 36.8338 39.8924 36.7294 39.6186C36.5526 39.379 36.3492 39.1606 36.123 38.9673C36.123 38.9673 35.8375 38.7463 36.0421 38.5343C36.0807 38.4951 36.1357 38.4772 36.1898 38.4857C36.2439 38.4942 36.291 38.5282 36.3159 38.5773C36.338 38.6113 36.3516 38.6503 36.3553 38.6908C36.3591 38.7312 36.353 38.772 36.3375 38.8096Z" fill="#E95721"></path><path d="M22.0843 47.4566C22.3263 47.6915 22.5507 47.944 22.7556 48.2121C22.8628 48.3547 22.9325 48.5219 22.9586 48.6986C22.9847 48.8752 22.9661 49.0556 22.9048 49.2232C22.9048 49.2232 22.8107 49.5457 22.2306 49.7823C22.1186 49.842 21.9881 49.8565 21.8657 49.823C21.7434 49.7895 21.6384 49.7104 21.572 49.6019C21.572 49.6019 21.3838 49.3658 21.7997 49.0678C21.9202 48.9965 22.0616 48.9693 22.1999 48.9906C22.3382 49.012 22.4649 49.0806 22.5585 49.1849C22.5585 49.1849 22.8121 49.0508 22.6568 48.6494C22.3976 48.2957 22.0975 47.9746 21.763 47.6917C21.763 47.6917 21.3429 47.3664 21.6468 47.0547C21.7037 46.9971 21.7842 46.9706 21.8641 46.9834C21.9441 46.9961 22.0123 47.0462 22.0486 47.1184C22.0804 47.1681 22.1003 47.2245 22.1065 47.2832C22.1127 47.3419 22.1051 47.4013 22.0843 47.4566Z" fill="#56306B"></path><path fill-rule="evenodd" clip-rule="evenodd" d="M11.7501 26.2236L12.842 26.1084L13.8943 26.0026L14.5816 25.8944C14.6268 25.8814 14.6742 25.8777 14.7208 25.8835C14.7675 25.8894 14.8125 25.9047 14.8531 25.9284L15.157 26.1362C15.204 26.1683 15.2412 26.2141 15.2125 26.2779C15.1838 26.3416 15.1241 26.3364 15.0714 26.3327L14.3925 26.2746L13.4136 26.3119L12.357 26.4493C12.2391 26.4712 12.1228 26.5008 12.0088 26.5381C11.8188 26.5848 11.6193 26.515 11.4994 26.3601C11.4893 26.3458 11.4824 26.3297 11.4791 26.3126C11.4757 26.2955 11.4761 26.2778 11.4801 26.2609C11.4918 26.2373 11.5384 26.2236 11.5713 26.2198C11.6315 26.2165 11.6918 26.2165 11.752 26.2198L11.7501 26.2236Z" fill="#E95721"></path><path fill-rule="evenodd" clip-rule="evenodd" d="M21.9993 50.7107L22.8555 50.602L23.6835 50.5038C23.8646 50.4793 24.0448 50.442 24.2235 50.4018C24.2589 50.3896 24.2967 50.3861 24.3336 50.3918C24.3706 50.3975 24.4056 50.4121 24.4357 50.4344L24.6709 50.6275C24.7152 50.6549 24.7349 50.7092 24.718 50.7588C24.6954 50.8188 24.6493 50.815 24.6046 50.8094L24.0721 50.7569C23.8152 50.7537 23.5584 50.7654 23.3029 50.7919L22.474 50.9203C22.3807 50.9402 22.2893 50.968 22.2007 51.0034C22.1248 51.0237 22.0445 51.0184 21.9719 50.9883C21.8994 50.9581 21.8388 50.9049 21.7994 50.8367C21.7833 50.8081 21.7776 50.7747 21.7834 50.7423C21.7917 50.7307 21.8026 50.7211 21.8151 50.7143C21.8277 50.7075 21.8416 50.7037 21.8558 50.7031C21.9028 50.7003 21.95 50.7003 21.997 50.7031L21.9993 50.7107ZM27.6676 56.2864L28.7717 56.1447L29.8354 56.0177C30.0664 55.987 30.2997 55.9393 30.5311 55.8883C30.5763 55.8722 30.6246 55.8676 30.672 55.8747C30.7193 55.8819 30.7642 55.9007 30.8026 55.9293L31.1098 56.1782C31.1648 56.2155 31.1879 56.2854 31.1653 56.3482C31.1361 56.4242 31.0759 56.4181 31.0204 56.4134C30.7932 56.3784 30.5645 56.3553 30.335 56.3444C30.0051 56.3408 29.6753 56.3556 29.3471 56.3888L28.2792 56.5541C28.1597 56.5815 28.0425 56.6174 27.9282 56.6618C27.7278 56.7151 27.5166 56.6268 27.4131 56.4469C27.392 56.4109 27.3858 56.368 27.3957 56.3274C27.406 56.2982 27.4531 56.2826 27.486 56.2802C27.5468 56.2765 27.6078 56.2765 27.6685 56.2802L27.6676 56.2864ZM19.8156 44.6632L20.4709 44.5938L21.1036 44.531L21.5148 44.4653C21.5418 44.4575 21.5702 44.4554 21.5981 44.4589C21.626 44.4625 21.6529 44.4718 21.6771 44.4861L21.8601 44.6108C21.8864 44.6301 21.9104 44.658 21.893 44.6948C21.8756 44.7317 21.8394 44.7298 21.806 44.727L21.3995 44.6925L20.8138 44.7147L20.1778 44.7983C20.1073 44.8105 20.0378 44.828 19.9699 44.8507C19.914 44.8647 19.8553 44.862 19.8009 44.8431C19.7465 44.8241 19.6988 44.7897 19.6636 44.744C19.6519 44.7265 19.6486 44.7048 19.6537 44.6845C19.6594 44.6698 19.6867 44.6618 19.706 44.6594C19.745 44.6561 19.7789 44.6594 19.816 44.6594L19.8156 44.6632Z" fill="#56306B"></path><path fill-rule="evenodd" clip-rule="evenodd" d="M17.4057 38.4922L17.8084 38.4492L18.1961 38.4105L18.4477 38.3704C18.4645 38.3656 18.482 38.3643 18.4993 38.3664C18.5166 38.3685 18.5333 38.374 18.5484 38.3827L18.6599 38.4596C18.6759 38.4714 18.69 38.488 18.6797 38.5116C18.6693 38.5352 18.6477 38.5333 18.6284 38.5314L18.3781 38.5097L18.0178 38.5239L17.6292 38.5749C17.586 38.5825 17.5434 38.5932 17.5017 38.607C17.4316 38.6235 17.3582 38.598 17.3135 38.5409C17.3102 38.5356 17.3079 38.5297 17.3069 38.5235C17.3058 38.5174 17.306 38.5111 17.3074 38.505C17.3121 38.496 17.3295 38.4913 17.3413 38.4894H17.4062L17.4057 38.4922ZM18.1119 33.4955L18.7752 33.4246L19.4183 33.3609L19.8374 33.2948C19.8929 33.2787 19.9522 33.2863 20.0021 33.3156L20.1879 33.4421C20.2138 33.4615 20.2373 33.4893 20.2199 33.5276C20.2025 33.5658 20.1658 33.5635 20.1333 33.5606L19.7189 33.5257L19.1233 33.5484L18.4793 33.632C18.4075 33.6454 18.3366 33.6634 18.2671 33.6858C18.2106 33.6997 18.1513 33.6969 18.0964 33.6777C18.0414 33.6585 17.9932 33.6238 17.9575 33.5776C17.9453 33.5602 17.9416 33.538 17.9467 33.5172C17.9524 33.5026 17.9815 33.4941 18.0008 33.4917C18.0378 33.4898 18.0749 33.4898 18.1119 33.4917V33.4955ZM39.0415 31.0913L39.5327 31.0389L40.0078 30.9917L40.3155 30.9445C40.3359 30.9385 40.3573 30.9368 40.3785 30.9394C40.3996 30.9421 40.4199 30.9491 40.4382 30.96L40.5747 31.0545C40.5958 31.0696 40.6114 31.0899 40.5996 31.1182C40.5878 31.1466 40.5615 31.1442 40.5366 31.1423L40.2308 31.1164L39.7895 31.1334L39.3144 31.1952C39.2613 31.2055 39.2089 31.2188 39.1572 31.2349C39.1158 31.2449 39.0724 31.2428 39.0321 31.2286C38.9919 31.2144 38.9566 31.1889 38.9305 31.1551C38.9255 31.1489 38.9221 31.1416 38.9204 31.1338C38.9186 31.126 38.9187 31.118 38.9206 31.1102C38.9263 31.0998 38.9474 31.0942 38.962 31.0918C38.9888 31.0904 39.0152 31.0904 39.042 31.0918L39.0415 31.0913ZM35.4704 37.9241L36.1446 37.8528L36.7947 37.7872L37.2181 37.7206C37.2459 37.7125 37.2751 37.7102 37.3038 37.7138C37.3325 37.7175 37.3602 37.727 37.3851 37.7418L37.5733 37.8698C37.601 37.8901 37.6241 37.917 37.6076 37.9567C37.5912 37.9964 37.5531 37.9931 37.5168 37.9902L37.0986 37.9548L36.4946 37.9775L35.8435 38.0625C35.7704 38.0756 35.6982 38.0938 35.6276 38.1168C35.5104 38.1461 35.3877 38.1031 35.3138 38.0072C35.3011 37.9898 35.2964 37.9671 35.302 37.9458C35.3096 37.9312 35.3387 37.9227 35.359 37.9213C35.3956 37.9189 35.4323 37.9189 35.469 37.9213L35.4704 37.9241ZM16.3872 27.0844C16.5067 26.768 16.605 26.444 16.6813 26.1144C16.6991 26.0115 16.5594 25.8311 16.446 25.7758C16.3684 25.7381 16.1878 25.8301 16.1026 25.9147C15.7884 26.2249 15.8651 26.64 16.3872 27.0844ZM15.9836 28.3306L16.9085 29.5537C17.0026 29.6926 16.9682 29.9155 16.9913 30.1001L16.5147 29.9079C16.4743 29.8956 16.4418 29.8649 16.4272 29.8248C16.4126 29.7846 16.4183 29.7403 16.4418 29.7048C16.422 29.5159 16.463 29.2902 16.3712 29.1504C16.1191 28.7656 15.8067 28.4175 15.5122 28.0421L16.1944 27.2034C16.0205 27.0673 15.8557 26.92 15.7009 26.7623C15.616 26.6754 15.5509 26.571 15.5101 26.4563C15.4694 26.3416 15.4539 26.2195 15.4648 26.0982C15.4757 25.9769 15.5128 25.8595 15.5733 25.754C15.6339 25.6486 15.7166 25.5575 15.8157 25.4873C15.9087 25.4305 16.0138 25.3966 16.1224 25.3882C16.231 25.3799 16.34 25.3975 16.4405 25.4394C16.5411 25.4814 16.6303 25.5466 16.701 25.6298C16.7717 25.713 16.8218 25.8117 16.8473 25.918C16.9744 26.2806 16.9727 26.6761 16.8426 27.0376C16.6027 27.498 16.3147 27.9314 15.9836 28.3306Z" fill="#E95721"></path><path fill-rule="evenodd" clip-rule="evenodd" d="M23.5703 45.4046C23.6907 45.0887 23.7886 44.7647 23.8643 44.4351C23.8845 44.3327 23.7439 44.1518 23.6319 44.097C23.5529 44.0602 23.3736 44.1508 23.2866 44.2354C22.9719 44.5447 23.0481 44.9612 23.5703 45.4046ZM23.1681 46.6523L24.0934 47.8744C24.1875 48.0161 24.1513 48.2371 24.1753 48.4213L23.6983 48.2295C23.6781 48.2237 23.6596 48.213 23.6444 48.1985C23.6291 48.1839 23.6176 48.166 23.6107 48.1461C23.6038 48.1261 23.6017 48.1048 23.6047 48.084C23.6076 48.0631 23.6155 48.0432 23.6277 48.026C23.6056 47.8371 23.6479 47.6114 23.5562 47.4711C23.3036 47.0872 22.9917 46.7387 22.6962 46.3637L23.3769 45.5255C23.2043 45.3886 23.0402 45.2413 22.8853 45.0845C22.8004 44.9976 22.7352 44.8932 22.6944 44.7786C22.6536 44.664 22.638 44.5418 22.6489 44.4205C22.6597 44.2993 22.6966 44.1818 22.7571 44.0763C22.8176 43.9708 22.9002 43.8797 22.9992 43.8094C23.1883 43.6942 23.4212 43.6767 23.6253 43.7617C23.7261 43.8038 23.8156 43.869 23.8866 43.9522C23.9576 44.0354 24.0082 44.1342 24.0341 44.2406C24.1593 44.6032 24.1569 44.998 24.0285 45.3598C23.787 45.8194 23.4989 46.2526 23.1681 46.6523ZM30.0731 53.792C30.1443 53.6017 30.2035 53.4071 30.2505 53.2093C30.2604 53.1469 30.1771 53.0374 30.1093 53.0057C30.0623 52.9831 29.9541 53.0383 29.9019 53.0893C29.7132 53.2754 29.7589 53.5238 30.0731 53.792ZM29.8313 54.5419L30.3874 55.2758C30.4255 55.3806 30.4415 55.4921 30.4344 55.6035L30.1498 55.4883C30.1249 55.4817 30.1051 55.4633 30.0957 55.4392C30.0863 55.4151 30.0891 55.3882 30.1028 55.3665C30.0929 55.2536 30.1164 55.1171 30.0623 55.0335C29.9099 54.8021 29.7241 54.5934 29.5448 54.3677L29.9517 53.8624C29.848 53.7808 29.7495 53.6928 29.6568 53.5989C29.606 53.5466 29.567 53.484 29.5427 53.4152C29.5183 53.3464 29.509 53.2732 29.5156 53.2005C29.5221 53.1278 29.5442 53.0574 29.5805 52.9941C29.6167 52.9308 29.6662 52.8761 29.7255 52.8339C29.7816 52.8 29.8448 52.7798 29.91 52.7749C29.9753 52.77 30.0408 52.7806 30.1013 52.8057C30.1617 52.8308 30.2155 52.8698 30.2582 52.9196C30.301 52.9693 30.3315 53.0284 30.3474 53.0922C30.4221 53.3105 30.4202 53.548 30.3417 53.7651C30.1982 54.0406 30.0269 54.3008 29.8313 54.5419ZM27.7365 59.9202C27.8248 59.6836 27.8978 59.4415 27.9547 59.1953C27.9689 59.1188 27.8649 58.9819 27.7812 58.9436C27.7238 58.9144 27.5883 58.9833 27.5238 59.0475C27.2877 59.2775 27.3455 59.5859 27.7365 59.9202ZM27.4349 60.8496L28.1255 61.7638C28.1937 61.8673 28.1683 62.0349 28.1871 62.1728L27.8306 62.0283C27.776 62.0018 27.7318 61.948 27.7765 61.8776C27.7619 61.736 27.792 61.5669 27.7238 61.463C27.5356 61.1754 27.3037 60.9148 27.0826 60.6352L27.5897 60.0109C27.4607 59.9082 27.338 59.7978 27.2223 59.6803C27.1591 59.6154 27.1107 59.5375 27.0804 59.452C27.0501 59.3665 27.0386 59.2754 27.0468 59.185C27.0549 59.0946 27.0825 59.007 27.1276 58.9284C27.1726 58.8497 27.2342 58.7818 27.3079 58.7292C27.3775 58.6867 27.4561 58.6613 27.5373 58.6551C27.6185 58.6488 27.7 58.6619 27.7753 58.6932C27.8505 58.7245 27.9173 58.7733 27.9702 58.8354C28.0232 58.8976 28.0607 58.9714 28.0799 59.0508C28.1749 59.3215 28.1735 59.6169 28.0761 59.8867C27.8964 60.2291 27.6814 60.5516 27.4349 60.8496Z" fill="#56306B"></path><path fill-rule="evenodd" clip-rule="evenodd" d="M17.568 32.3001C17.6466 32.0954 17.7107 31.8853 17.76 31.6716C17.7713 31.6054 17.6814 31.4869 17.6094 31.4524C17.5586 31.4284 17.4419 31.4874 17.3864 31.5426C17.1794 31.7424 17.2303 32.0125 17.568 32.3001ZM17.3079 33.1081L17.9077 33.901C17.9486 34.0142 17.967 34.1344 17.9618 34.2547L17.6522 34.13C17.6052 34.1069 17.5647 34.0601 17.6052 33.9983C17.592 33.8774 17.6188 33.7296 17.5581 33.6394C17.3935 33.3896 17.1945 33.1638 17.0016 32.9206L17.4429 32.3771C17.3301 32.2897 17.2231 32.195 17.1225 32.0937C17.012 31.9795 16.9565 31.8227 16.971 31.664C16.9856 31.5053 17.0684 31.3608 17.1978 31.2687C17.3201 31.1941 17.4706 31.1823 17.6033 31.2376C17.6686 31.2647 17.7266 31.3069 17.7724 31.3608C17.8183 31.4148 17.8508 31.4789 17.8672 31.5478C17.9472 31.783 17.9463 32.0385 17.8639 32.2732C17.708 32.5701 17.5216 32.8499 17.3079 33.1081ZM20.5671 40.942C20.6451 40.7371 20.7087 40.5269 20.7576 40.313C20.7703 40.2469 20.6781 40.1279 20.6052 40.0939C20.5581 40.0693 20.44 40.1293 20.3822 40.1836C20.1766 40.3848 20.2283 40.6535 20.5671 40.942ZM20.3064 41.7495L20.9053 42.5434C20.966 42.6326 20.9429 42.7767 20.9589 42.8976L20.6494 42.7724C20.6023 42.7488 20.5628 42.7016 20.6023 42.6402C20.5906 42.5193 20.6164 42.3715 20.5576 42.2818C20.3935 42.0319 20.1926 41.8057 20.0002 41.5635L20.4419 41.0195C20.3291 40.9323 20.2223 40.8376 20.122 40.7361C20.0674 40.6796 20.0255 40.612 19.9992 40.5378C19.973 40.4636 19.963 40.3846 19.9699 40.3062C19.9768 40.2277 20.0005 40.1517 20.0394 40.0833C20.0782 40.0149 20.1312 39.9557 20.1949 39.9097C20.2555 39.8732 20.3238 39.8515 20.3943 39.8463C20.4648 39.8411 20.5355 39.8526 20.6007 39.8798C20.666 39.9071 20.724 39.9493 20.77 40.0031C20.816 40.057 20.8488 40.1209 20.8658 40.1898C20.9474 40.4248 20.946 40.6809 20.862 40.9151C20.7062 41.212 20.52 41.4914 20.3064 41.7495Z" fill="#E95721"></path><path fill-rule="evenodd" clip-rule="evenodd" d="M23.9642 54.1395C24.0421 53.9346 24.106 53.7246 24.1552 53.5109C24.167 53.4448 24.0762 53.3253 24.0056 53.2913C23.9553 53.2677 23.8377 53.3263 23.7821 53.382C23.5756 53.5822 23.6283 53.8519 23.9642 54.1395ZM23.7031 54.9475L24.302 55.7399C24.3432 55.8532 24.3616 55.9736 24.3561 56.0941L24.0465 55.9694C24.0202 55.9614 23.9995 55.9411 23.9901 55.9156C23.9807 55.8901 23.9844 55.8608 23.9995 55.8376C23.9877 55.7163 24.015 55.5671 23.9553 55.4783C23.7906 55.2289 23.5907 55.0027 23.3992 54.76L23.8405 54.216C23.7274 54.1292 23.6205 54.0345 23.5206 53.9326C23.4655 53.8765 23.4233 53.8089 23.3968 53.7347C23.3704 53.6605 23.3604 53.5814 23.3674 53.5029C23.3745 53.4244 23.3985 53.3484 23.4378 53.2801C23.4771 53.2119 23.5307 53.153 23.5949 53.1076C23.7172 53.033 23.8678 53.0217 24 53.0765C24.1321 53.1313 24.2305 53.2465 24.2648 53.3863C24.3462 53.6219 24.3443 53.8783 24.2601 54.1126C24.1043 54.4097 23.9178 54.6896 23.7036 54.9475H23.7031Z" fill="#56306B"></path><path fill-rule="evenodd" clip-rule="evenodd" d="M40.5808 27.2671C40.6799 27.0043 40.7621 26.7354 40.8268 26.4619C40.8404 26.3765 40.7247 26.2258 40.6311 26.1786C40.5666 26.1474 40.417 26.2258 40.3455 26.2938C40.0849 26.5526 40.147 26.8978 40.5808 27.2671ZM40.2463 28.3032L41.0154 29.3194C41.0682 29.4644 41.0914 29.6186 41.0836 29.7728L40.6866 29.6132C40.6527 29.6033 40.6259 29.5773 40.6137 29.5442C40.6015 29.5112 40.6062 29.4739 40.6259 29.4446C40.6095 29.2892 40.6443 29.1003 40.5671 28.9842C40.3578 28.6645 40.1033 28.375 39.8558 28.0638L40.4203 27.3663C40.2756 27.2534 40.1384 27.1312 40.0096 27.0003C39.9395 26.9281 39.8858 26.8416 39.8522 26.7466C39.8185 26.6517 39.8057 26.5505 39.8146 26.4501C39.8236 26.3498 39.854 26.2525 39.9039 26.165C39.9538 26.0776 40.022 26.002 40.1037 25.9434C40.2609 25.8476 40.4542 25.8325 40.624 25.9033C40.7078 25.9381 40.7822 25.9923 40.841 26.0615C40.8999 26.1307 40.9416 26.2129 40.9627 26.3014C41.0667 26.6026 41.0654 26.9304 40.959 27.2307C40.7591 27.6121 40.5202 27.9715 40.2463 28.3032ZM36.4381 36.0181C36.4978 35.8561 36.5473 35.6905 36.5863 35.5223C36.5957 35.4703 36.5251 35.3773 36.4677 35.3494C36.4277 35.331 36.3346 35.3778 36.2918 35.4207C36.1318 35.5789 36.17 35.7929 36.4381 36.0181ZM36.2311 36.6556L36.7015 37.2809C36.7486 37.3517 36.7312 37.4669 36.7434 37.5604L36.5007 37.4622C36.4607 37.4438 36.432 37.407 36.4621 37.3578C36.4522 37.2634 36.4739 37.1468 36.4259 37.0745C36.297 36.8776 36.1389 36.6996 35.9874 36.5078L36.3346 36.079C36.2467 36.0091 36.163 35.934 36.0839 35.8542C36.0405 35.8098 36.0073 35.7565 35.9865 35.698C35.9657 35.6394 35.9578 35.577 35.9634 35.5151C35.9689 35.4532 35.9878 35.3933 36.0187 35.3394C36.0495 35.2855 36.0917 35.239 36.1422 35.203C36.2386 35.1445 36.3572 35.135 36.4616 35.1785C36.5661 35.2219 36.6437 35.3126 36.6705 35.4226C36.7349 35.6082 36.7335 35.8103 36.6672 35.9954C36.545 36.2301 36.3989 36.4513 36.2311 36.6556Z" fill="#E95721"></path><path d="M18.0869 30.8321H17.6965V27.8622C17.6556 27.9014 17.6108 27.9364 17.5629 27.9666C17.5003 28.0095 17.4349 28.0483 17.3676 28.0827C17.2934 28.1231 17.2169 28.1592 17.1385 28.1909C17.0625 28.2239 16.9838 28.2504 16.9033 28.2702V27.8721C16.9969 27.8465 17.0889 27.8149 17.1785 27.7777L17.4608 27.6403L17.7252 27.4821C17.8004 27.4337 17.872 27.3797 17.9392 27.3206H18.0865L18.0869 30.8321ZM19.1675 39.9203H18.8702V37.6687C18.8392 37.6975 18.8058 37.7234 18.7709 37.7475C18.7228 37.7798 18.6729 37.8093 18.6214 37.8358L18.4478 37.918C18.3897 37.9417 18.3301 37.9615 18.2695 37.9775V37.6758C18.3396 37.6559 18.4087 37.6314 18.476 37.603L18.691 37.4991L18.8909 37.3797C18.948 37.3419 19.0028 37.3007 19.0551 37.2564H19.1675V39.9203ZM35.7819 42.4019H35.486V40.1498C35.4543 40.1787 35.4205 40.2052 35.3848 40.2291C35.337 40.2611 35.2874 40.2903 35.2362 40.3165L35.0626 40.3991C35.0044 40.4234 34.9445 40.4433 34.8834 40.4586V40.1564C34.9538 40.1371 35.0228 40.1128 35.0899 40.0837L35.3068 39.9793L35.5072 39.8598C35.5641 39.8222 35.6188 39.7812 35.6709 39.7371H35.7819V42.4019Z" fill="#E95721"></path><path fill-rule="evenodd" clip-rule="evenodd" d="M14.3474 30.1897H14.1536V30.1614V29.9017C14.1532 29.8228 14.1492 29.744 14.1413 29.6656C14.1312 29.4837 14.1016 29.3036 14.0529 29.1282L13.8995 28.6474C13.8548 28.5204 13.8007 28.3967 13.7443 28.2739C13.7067 28.195 13.6634 28.119 13.6144 28.0463L13.3679 27.6883C13.332 27.6373 13.2938 27.5878 13.2536 27.54C13.2419 27.5273 13.2395 27.5079 13.248 27.4928L13.3849 27.1528L13.5801 26.6669L13.6201 26.5767L13.7165 26.7009L13.9828 27.0824C14.0408 27.1752 14.0912 27.2727 14.1333 27.3738C14.1898 27.5051 14.2368 27.6401 14.2811 27.7761C14.3295 27.9242 14.3668 28.0758 14.3925 28.2295L14.4363 28.4887C14.4457 28.5563 14.4509 28.6243 14.4523 28.6923L14.4636 29.1645C14.4636 29.2533 14.4509 29.3421 14.4434 29.4309L14.4259 29.6198L14.3982 29.8157L14.3766 29.9815L14.3483 30.1704L14.3474 30.1897ZM22.5499 44.0031H22.3565V43.9748V43.7151L22.3457 43.4789C22.3349 43.2971 22.3048 43.1172 22.2559 42.9415C22.2095 42.78 22.1583 42.6196 22.1025 42.4603C22.0567 42.3344 22.0054 42.21 21.9487 42.0873C21.91 42.0085 21.866 41.9324 21.817 41.8596L21.5719 41.5012L21.458 41.3534C21.4458 41.3407 21.443 41.3218 21.4505 41.3062L21.5883 40.9671L21.7836 40.4807L21.824 40.391L21.9205 40.5152L22.1853 40.8958C22.2436 40.9887 22.2944 41.0861 22.3373 41.1872L22.485 41.589C22.534 41.7371 22.5709 41.8888 22.5955 42.0429L22.6426 42.3026L22.659 42.5057L22.6689 42.9779C22.6689 43.0667 22.6562 43.1559 22.6492 43.2442L22.6313 43.4331L22.6049 43.6286L22.5814 43.7944L22.5527 43.9809C22.5513 43.988 22.5504 43.9956 22.5499 44.0031Z" fill="#E95721"></path><path fill-rule="evenodd" clip-rule="evenodd" d="M26.7436 60.4689H26.4613C26.459 60.4557 26.4576 60.4425 26.4571 60.4288V60.051L26.4416 59.7086C26.4245 59.4445 26.3808 59.1828 26.3112 58.9276L26.0878 58.2291C26.0218 58.0446 25.9466 57.8635 25.8625 57.6865C25.8074 57.5718 25.7434 57.4613 25.6719 57.356L25.3149 56.8365L25.1497 56.6212C25.1323 56.6027 25.1286 56.5749 25.1403 56.5522L25.3393 56.0601L25.6249 55.3518L25.6818 55.2219L25.8229 55.4023L26.2106 55.9563C26.2957 56.0908 26.3691 56.2335 26.4289 56.3813L26.6453 56.9654C26.7163 57.1812 26.7701 57.4022 26.8061 57.6265L26.8706 58.0043C26.8852 58.1026 26.8936 58.2013 26.8955 58.3004L26.9111 58.9866C26.9111 59.1165 26.8918 59.2458 26.8809 59.3752L26.8565 59.6463L26.817 59.9296L26.7831 60.17L26.7431 60.4415C26.7426 60.4505 26.7426 60.46 26.7436 60.4689Z" fill="#56306B"></path><path d="M18.6217 29.9182C18.7586 30.0504 18.8856 30.1926 19.0023 30.3432C19.0619 30.4239 19.1006 30.5182 19.1148 30.6176C19.129 30.7171 19.1183 30.8185 19.0836 30.9128C19.0836 30.9128 19.0314 31.0946 18.7073 31.2287C18.644 31.262 18.5706 31.2699 18.5017 31.251C18.4328 31.2321 18.3737 31.1877 18.3361 31.1267C18.3361 31.1267 18.2289 30.9935 18.4645 30.8259C18.5322 30.7851 18.6118 30.7693 18.6898 30.7812C18.7678 30.7931 18.8392 30.8319 18.8917 30.891C18.8917 30.891 19.0361 30.8159 18.9477 30.5902C18.8019 30.3909 18.6331 30.2097 18.4448 30.0504C18.4448 30.0504 18.2096 29.8667 18.3794 29.6911C18.3951 29.6752 18.4144 29.6633 18.4356 29.6564C18.4568 29.6494 18.4794 29.6477 18.5014 29.6512C18.5235 29.6547 18.5444 29.6634 18.5624 29.6765C18.5804 29.6897 18.5951 29.707 18.6052 29.727C18.641 29.7841 18.6471 29.8554 18.6217 29.9182Z" fill="#E95721"></path><path fill-rule="evenodd" clip-rule="evenodd" d="M17.3706 26.5813L18.1671 26.4911L18.9329 26.4089L19.4363 26.3244C19.469 26.3142 19.5036 26.3112 19.5375 26.3158C19.5715 26.3204 19.6041 26.3323 19.6329 26.3509L19.854 26.5128C19.8921 26.535 19.9091 26.5813 19.8945 26.6229C19.8738 26.6701 19.8315 26.6701 19.7891 26.6654L19.2956 26.6182L18.5801 26.6479L17.8086 26.7551C17.723 26.7721 17.6387 26.7953 17.5564 26.8245C17.4153 26.8595 17.2671 26.8033 17.1843 26.6828C17.1697 26.6597 17.1646 26.6318 17.1702 26.6054C17.1871 26.586 17.2111 26.5742 17.237 26.5738C17.2808 26.5714 17.324 26.5714 17.3678 26.5738L17.3706 26.5813Z" fill="#E95721"></path><path d="M20.3675 25.8249C20.5013 25.9543 20.6255 26.0933 20.7391 26.2409C20.8595 26.401 20.891 26.6116 20.8228 26.8C20.8228 26.8 20.7697 26.9781 20.4498 27.1089C20.3876 27.1416 20.3154 27.1495 20.2476 27.1309C20.1799 27.1124 20.1217 27.0687 20.0847 27.0088C20.0847 27.0088 19.9803 26.8779 20.2122 26.7141C20.2786 26.6745 20.3567 26.6593 20.433 26.6711C20.5093 26.6828 20.5793 26.7207 20.6309 26.7783C20.6309 26.7783 20.772 26.7042 20.6864 26.4827C20.543 26.2877 20.3774 26.1102 20.1929 25.9538C20.1929 25.9538 19.9629 25.7734 20.128 25.602C20.1437 25.5865 20.1628 25.575 20.1837 25.5683C20.2046 25.5616 20.2268 25.5598 20.2485 25.5632C20.2702 25.5666 20.2908 25.575 20.3086 25.5878C20.3265 25.6006 20.3412 25.6174 20.3515 25.6369C20.3687 25.6647 20.3791 25.6963 20.3819 25.729C20.3847 25.7616 20.3797 25.7945 20.3675 25.8249ZM18.7148 31.7826C18.844 31.908 18.9639 32.0426 19.0738 32.1854C19.1309 32.2618 19.1682 32.3513 19.1823 32.4457C19.1964 32.5402 19.1869 32.6367 19.1547 32.7266C19.1547 32.7266 19.1025 32.899 18.7938 33.026C18.7339 33.0583 18.6639 33.0665 18.5981 33.049C18.5324 33.0315 18.4757 32.9895 18.4396 32.9315C18.4396 32.9315 18.3389 32.805 18.5624 32.6482C18.6269 32.6101 18.7026 32.5955 18.7765 32.6069C18.8505 32.6184 18.9183 32.6551 18.9684 32.711C18.9684 32.711 19.1039 32.6402 19.022 32.4244C18.8831 32.2351 18.7224 32.0632 18.5431 31.912C18.5431 31.912 18.3192 31.7391 18.4805 31.5715C18.5111 31.5408 18.5544 31.5266 18.5972 31.5332C18.64 31.5399 18.6772 31.5668 18.6969 31.6055C18.7131 31.6317 18.7231 31.6613 18.7262 31.692C18.7293 31.7227 18.7254 31.7536 18.7148 31.7826Z" fill="#E95721"></path><path d="M31.0367 51.8767C31.2613 52.0941 31.47 52.3275 31.661 52.5751C31.7599 52.7075 31.8242 52.8626 31.8482 53.0263C31.8721 53.1901 31.8548 53.3572 31.7979 53.5125C31.7979 53.5125 31.7094 53.811 31.1746 54.032C31.0705 54.0868 30.9496 54.1 30.8362 54.0691C30.7228 54.0382 30.6252 53.9654 30.563 53.8653C30.563 53.8653 30.3866 53.6457 30.7766 53.3694C31.0057 53.2325 31.2997 53.2778 31.4771 53.4776C31.4771 53.4776 31.7123 53.3534 31.5711 52.9812C31.3312 52.654 31.0537 52.356 30.7441 52.0939C30.7441 52.0939 30.356 51.7926 30.6359 51.5036C30.6886 51.4507 30.7634 51.4262 30.8368 51.438C30.9102 51.4498 30.9737 51.4965 31.0076 51.5631C31.0369 51.6093 31.0548 51.6618 31.0599 51.7164C31.065 51.7709 31.057 51.8258 31.0367 51.8767Z" fill="#56306B"></path><path d="M16.6471 34.8521H16.3376V32.5088C16.3059 32.54 16.271 32.5677 16.2336 32.5915C16.1865 32.6231 16.1353 32.6529 16.0802 32.6836C16.0252 32.7143 15.9617 32.7421 15.8991 32.7686C15.838 32.7939 15.7751 32.8146 15.7109 32.8304V32.5164C15.7853 32.4961 15.8581 32.4706 15.9287 32.4399L16.1522 32.3327L16.3597 32.2075C16.4188 32.1689 16.4752 32.1263 16.5286 32.08H16.6462L16.6471 34.8521ZM17.7249 35.0159C17.9846 35.2672 18.2259 35.5368 18.447 35.823C18.5619 35.9762 18.6367 36.1559 18.6645 36.3457C18.6924 36.5354 18.6724 36.7291 18.6065 36.9091C18.6065 36.9091 18.5039 37.2543 17.8848 37.5089C17.7642 37.572 17.6243 37.5872 17.493 37.5514C17.3616 37.5156 17.2486 37.4314 17.1763 37.3157C17.1763 37.3157 16.9726 37.0612 17.4224 36.7434C17.6882 36.5847 18.0288 36.6366 18.2353 36.868C18.2353 36.868 18.5072 36.7264 18.3416 36.2938C18.0644 35.9157 17.7443 35.5713 17.3876 35.2676C17.3876 35.2676 16.9369 34.9187 17.261 34.5848C17.291 34.5543 17.3277 34.5314 17.3682 34.518C17.4088 34.5046 17.4519 34.5011 17.494 34.5078C17.5362 34.5145 17.5761 34.5312 17.6105 34.5565C17.6449 34.5818 17.6729 34.6149 17.6919 34.6533C17.7611 34.7614 17.7733 34.8969 17.7249 35.0159ZM22.3191 26.7272H22.1446V25.4073C22.1271 25.4255 22.1073 25.4414 22.0858 25.4546C22.0579 25.474 22.0286 25.4915 21.9983 25.507L21.8972 25.5542C21.8627 25.5684 21.8273 25.5802 21.7913 25.5896V25.4125C21.833 25.4008 21.8739 25.3863 21.9136 25.3691L22.0397 25.3086L22.1578 25.2388C22.1904 25.2163 22.2218 25.1922 22.2519 25.1665H22.3173L22.3191 26.7272ZM21.3675 37.9764C21.5829 38.1842 21.7824 38.4075 21.9649 38.6451C22.1583 38.902 22.2081 39.2401 22.0971 39.5423C22.0971 39.5423 22.0124 39.8257 21.4992 40.0382C21.4 40.0906 21.2846 40.1032 21.1765 40.0734C21.0684 40.0437 20.9756 39.9739 20.9168 39.8781C20.9168 39.8781 20.7479 39.6679 21.1191 39.4058C21.3388 39.2746 21.6201 39.3175 21.7908 39.5088C21.7908 39.5088 22.0167 39.3903 21.8793 39.0342C21.6503 38.7208 21.3853 38.4355 21.0899 38.1842C21.0899 38.1842 20.7159 37.8956 20.984 37.6175C21.0344 37.5665 21.1064 37.5429 21.1769 37.5542C21.2475 37.5655 21.3086 37.6104 21.3406 37.6746C21.3691 37.719 21.3864 37.7696 21.3911 37.8222C21.3958 37.8747 21.3877 37.9277 21.3675 37.9764ZM18.987 41.1153C19.1164 41.241 19.2364 41.376 19.3469 41.5186C19.4631 41.674 19.4932 41.8775 19.4269 42.0598C19.4269 42.0598 19.3747 42.2322 19.067 42.3592C19.0072 42.3911 18.9376 42.3991 18.8721 42.3816C18.8067 42.3641 18.7502 42.3223 18.7142 42.2648C18.7142 42.2648 18.6121 42.1377 18.8365 41.9814C18.9005 41.9428 18.976 41.9279 19.0498 41.9393C19.1236 41.9507 19.1911 41.9877 19.2406 42.0438C19.2406 42.0438 19.377 41.9715 19.2942 41.7566C19.1554 41.5683 18.9955 41.3965 18.8177 41.2447C18.8177 41.2447 18.5924 41.0709 18.7537 40.9042C18.7843 40.8736 18.8276 40.8594 18.8704 40.866C18.9132 40.8726 18.9499 40.8995 18.9696 40.9382C19.0026 40.9911 19.0092 41.0568 18.987 41.1153Z" fill="#E95721"></path><path d="M26.624 52.4769C26.8173 52.6658 26.998 52.8674 27.1641 53.0809C27.2494 53.1956 27.3049 53.3299 27.3254 53.4715C27.346 53.6132 27.3309 53.7578 27.2817 53.8922C27.2817 53.8922 27.2055 54.1505 26.7416 54.3413C26.5548 54.4395 26.3239 54.3762 26.2128 54.1963C26.2128 54.1963 26.0614 54.0074 26.3972 53.768C26.5967 53.6499 26.8512 53.6896 27.006 53.8624C27.006 53.8624 27.2083 53.7547 27.0836 53.4332C26.8763 53.1503 26.6366 52.8929 26.3695 52.6662C26.3695 52.6662 26.0327 52.4037 26.2754 52.1553C26.321 52.1085 26.386 52.0873 26.4499 52.0972C26.5139 52.1071 26.5694 52.1477 26.5986 52.2063C26.6239 52.2461 26.6395 52.2914 26.6439 52.3385C26.6483 52.3856 26.6415 52.433 26.624 52.4769ZM28.9583 58.7553C29.1529 58.9428 29.3334 59.1445 29.4984 59.3588C29.584 59.4734 29.6396 59.6078 29.6604 59.7495C29.6811 59.8913 29.6661 60.036 29.6169 60.1705C29.6169 60.1705 29.5407 60.4284 29.0768 60.6182C28.9871 60.6658 28.8827 60.6774 28.7847 60.6506C28.6868 60.6237 28.6027 60.5605 28.5495 60.4737C28.5495 60.4737 28.3961 60.2848 28.733 60.0454C28.8295 59.9881 28.9429 59.9662 29.0537 59.9834C29.1645 60.0006 29.266 60.0559 29.3408 60.1399C29.3408 60.1399 29.544 60.0317 29.4193 59.7101C29.2118 59.4274 28.9725 59.1695 28.7061 58.9418C28.7061 58.9418 28.3688 58.6811 28.6121 58.4318C28.6572 58.3855 28.7221 58.3642 28.7856 58.3742C28.8492 58.3841 28.9042 58.4247 28.9334 58.4823C28.987 58.5635 28.9959 58.666 28.9583 58.7553ZM21.2149 46.8422H21.0404V45.5199C21.0232 45.538 21.0037 45.5539 20.9825 45.5671C20.9543 45.5865 20.9251 45.604 20.8946 45.6191L20.7953 45.6663C20.7609 45.6805 20.7255 45.6922 20.6895 45.7012V45.5246C20.7304 45.5128 20.7704 45.4986 20.8099 45.4826C20.8532 45.4637 20.8956 45.4428 20.9369 45.4198C20.9769 45.399 21.0159 45.3759 21.0536 45.3508C21.0874 45.3289 21.12 45.3049 21.1509 45.2791H21.2154L21.2149 46.8422ZM32.4833 51.9829H32.1671V49.5953C32.1343 49.6264 32.0987 49.6544 32.0608 49.6789L31.9051 49.7733C31.8482 49.8045 31.7842 49.8319 31.7169 49.8597C31.6558 49.8851 31.5929 49.9061 31.5288 49.9226V49.6028C31.6038 49.5819 31.6773 49.556 31.7489 49.5254L31.9771 49.4154C32.0498 49.3768 32.1203 49.3342 32.1883 49.2879C32.2489 49.2484 32.3067 49.2048 32.3614 49.1575H32.4814L32.4833 51.9829ZM27.285 64.3314H26.9749V61.9896C26.9434 62.0212 26.9086 62.0491 26.8714 62.0732L26.7181 62.1653C26.6589 62.1963 26.5983 62.2245 26.5365 62.2498C26.4763 62.2748 26.4142 62.2956 26.3507 62.3117V61.9981C26.4241 61.9771 26.4962 61.9517 26.5666 61.9221L26.7901 61.8139L26.9971 61.6888C27.0567 61.6508 27.1134 61.6082 27.1664 61.5613H27.2845L27.285 64.3314ZM25.1962 55.0321H24.7517V51.6727C24.706 51.7171 24.6562 51.7562 24.6025 51.7907C24.5367 51.8346 24.4614 51.8786 24.3805 51.922C24.2996 51.9654 24.2125 52.0056 24.1208 52.0443C24.0344 52.0812 23.9452 52.111 23.8541 52.1336V51.683C23.9602 51.6536 24.0643 51.617 24.1655 51.5735L24.4849 51.4191L24.786 51.2387C24.8706 51.1834 24.9515 51.1227 25.0283 51.0569H25.1967L25.1962 55.0321Z" fill="#56306B"></path><path fill-rule="evenodd" clip-rule="evenodd" d="M29.6105 59.0393H29.483V59.0199V58.8485L29.4769 58.694C29.4698 58.5741 29.4501 58.4556 29.4176 58.3399C29.3863 58.2344 29.3525 58.1289 29.3165 58.0235L29.2149 57.7774C29.1894 57.7252 29.1598 57.6752 29.1264 57.6277L28.966 57.3916C28.9425 57.3581 28.9176 57.3255 28.8907 57.2948C28.8832 57.2858 28.8818 57.2736 28.8865 57.2627L28.9778 57.0393L29.1067 56.7182L29.1316 56.6592L29.1951 56.7409L29.372 56.9921C29.4091 57.0539 29.4422 57.1179 29.4713 57.1838L29.5686 57.4492C29.6004 57.5467 29.6246 57.6465 29.6411 57.7477L29.6707 57.9182C29.6769 57.9625 29.6803 58.0071 29.6811 58.0518L29.6881 58.3635C29.6881 58.4225 29.6797 58.4811 29.6754 58.5387L29.6641 58.6629L29.6477 58.7913L29.6317 58.9004L29.6133 59.0241C29.61 59.0284 29.6105 59.0317 29.6105 59.0393Z" fill="#56306B"></path><path d="M33.0586 46.3045C33.3176 46.5557 33.558 46.8256 33.7779 47.112C34.0112 47.4232 34.0715 47.8321 33.9379 48.1981C33.9379 48.1981 33.8362 48.5429 33.2171 48.7983C33.0969 48.8617 32.9572 48.8769 32.8262 48.8409C32.6953 48.8048 32.5828 48.7203 32.5115 48.6043C32.5115 48.6043 32.3069 48.3502 32.7571 48.0319C33.0229 47.8737 33.363 47.9261 33.5695 48.157C33.5695 48.157 33.8409 48.0154 33.6758 47.5823C33.3981 47.204 33.0773 46.8596 32.7199 46.5562C32.7199 46.5562 32.2711 46.2072 32.5929 45.8738C32.6536 45.8119 32.7406 45.7831 32.8262 45.7968C32.9118 45.8105 32.9857 45.8639 33.0247 45.9413C33.0585 45.9949 33.0792 46.0557 33.0851 46.1188C33.091 46.1819 33.0819 46.2455 33.0586 46.3045Z" fill="#56306B"></path><path fill-rule="evenodd" clip-rule="evenodd" d="M33.0296 44.199L33.7032 44.1282L34.3524 44.0626L34.7758 43.996C34.8318 43.9804 34.892 43.988 34.9428 44.0168L35.131 44.1447C35.1583 44.165 35.1818 44.192 35.1654 44.2316C35.1489 44.2713 35.1089 44.2685 35.0769 44.2652L34.6573 44.2297L34.0523 44.2524L33.4017 44.3384C33.3288 44.352 33.2563 44.3705 33.1858 44.3936C33.0686 44.4215 32.9463 44.378 32.8725 44.2831C32.8598 44.2656 32.855 44.2434 32.8602 44.2222C32.8677 44.2066 32.8955 44.1981 32.9171 44.1967C32.954 44.1948 32.9909 44.1948 33.0277 44.1967L33.0296 44.199Z" fill="#56306B"></path><path d="M34.2556 46.5737H34.0773V45.2358C34.0589 45.2538 34.0387 45.2698 34.0171 45.283C33.9893 45.3024 33.9597 45.3203 33.9296 45.3359C33.8958 45.3535 33.8611 45.3692 33.8256 45.3832C33.7916 45.3978 33.7565 45.4099 33.7207 45.4195V45.2396C33.7623 45.2278 33.8032 45.2134 33.843 45.1966L33.971 45.1348L34.0914 45.063C34.1239 45.0408 34.1554 45.0162 34.1855 44.9907H34.2537L34.2556 46.5737Z" fill="#56306B"></path><path fill-rule="evenodd" clip-rule="evenodd" d="M34.6112 41.8603C34.6672 41.7123 34.7132 41.5606 34.749 41.4064C34.758 41.3592 34.6926 41.2728 34.6404 41.2478C34.6037 41.2303 34.5185 41.2738 34.4781 41.312C34.3308 41.4579 34.3666 41.652 34.6112 41.8603ZM34.423 42.4444L34.8554 43.0168C34.8986 43.0815 34.8822 43.1858 34.8939 43.2727L34.6724 43.1825C34.6371 43.1669 34.6084 43.1353 34.6385 43.0881C34.6286 43.0002 34.6474 42.8935 34.6046 42.8288C34.4861 42.6489 34.3416 42.485 34.2029 42.3094L34.5204 41.916C34.4399 41.8522 34.3634 41.7834 34.2913 41.7101C34.2515 41.6696 34.221 41.6209 34.2019 41.5673C34.1827 41.5137 34.1755 41.4567 34.1805 41.4C34.1856 41.3433 34.2029 41.2885 34.2312 41.2392C34.2595 41.1899 34.2981 41.1474 34.3445 41.1146C34.4329 41.0603 34.5416 41.0518 34.6371 41.0919C34.7326 41.1321 34.8036 41.2152 34.8276 41.3163C34.8863 41.4859 34.8863 41.6704 34.8276 41.84C34.7138 42.0553 34.5783 42.2584 34.4226 42.4454L34.423 42.4444Z" fill="#E95721"></path><path d="M37.7337 33.0043H37.5295V31.4544C37.5088 31.475 37.4857 31.4931 37.4608 31.5083C37.4286 31.5306 37.3952 31.5511 37.3606 31.5696L37.2421 31.6258C37.2014 31.6426 37.1596 31.6563 37.1169 31.6669V31.4591C37.1649 31.4453 37.2121 31.4286 37.2581 31.4091L37.4058 31.3383C37.4528 31.3131 37.4985 31.2855 37.5427 31.2556C37.5817 31.2301 37.6184 31.2018 37.6537 31.1711H37.7309L37.7337 33.0043ZM43.2848 27.1755H43.0802V25.6261C43.059 25.6463 43.036 25.6645 43.0115 25.6804L42.9099 25.7408L42.7899 25.7975C42.7496 25.8143 42.7081 25.828 42.6657 25.8386V25.6313C42.7147 25.6171 42.7631 25.6001 42.8102 25.5798C42.8605 25.559 42.9094 25.5354 42.9574 25.509C43.0049 25.4841 43.0509 25.4565 43.0952 25.4263C43.1346 25.4006 43.1723 25.3724 43.2081 25.3418H43.2848V27.1755Z" fill="#E95721"></path><path fill-rule="evenodd" clip-rule="evenodd" d="M33.8035 25.9552L34.6093 25.8202L35.3893 25.6979C35.5573 25.6662 35.7276 25.6209 35.8964 25.5713C35.93 25.5564 35.9673 25.5522 36.0033 25.5593C36.0394 25.5664 36.0723 25.5844 36.0978 25.611L36.3222 25.8523C36.3429 25.8736 36.3575 25.9001 36.3645 25.929C36.3714 25.9579 36.3705 25.9882 36.3617 26.0166C36.3391 26.0903 36.2963 26.0851 36.2554 26.0799C36.0899 26.0472 35.9226 26.0248 35.7544 26.0129C35.5123 26.0097 35.2703 26.0245 35.0304 26.0572C34.7688 26.0931 34.5091 26.1564 34.248 26.2164C34.1594 26.243 34.0734 26.2778 33.9912 26.3203C33.8303 26.3647 33.6633 26.2726 33.6148 26.112C33.5995 26.0757 33.5947 26.0357 33.6012 25.9968C33.6144 25.9699 33.6402 25.9519 33.6699 25.9496C33.7137 25.9459 33.7578 25.9459 33.8016 25.9496L33.8035 25.9552ZM44.0133 25.942C44.051 25.8438 44.0811 25.7437 44.1046 25.6412C44.1102 25.61 44.0665 25.5529 44.0317 25.5364C44.0086 25.5246 43.9512 25.5534 43.9263 25.5793C43.8285 25.6762 43.8515 25.8041 44.0133 25.942ZM43.8887 26.3283L44.1752 26.7061C44.1945 26.7599 44.2029 26.8175 44.2006 26.8747L44.0538 26.8157C44.0303 26.8043 44.0115 26.7821 44.0303 26.7524C44.0246 26.6943 44.0387 26.6239 44.0086 26.581C43.9305 26.461 43.835 26.3538 43.7428 26.2372L43.9536 25.9774C43.8995 25.9349 43.8482 25.8891 43.7998 25.8405C43.7735 25.8135 43.7534 25.7812 43.7409 25.7457C43.7284 25.7102 43.7237 25.6723 43.7272 25.6348C43.7307 25.5973 43.7423 25.561 43.7611 25.5284C43.78 25.4958 43.8057 25.4678 43.8364 25.4462C43.8948 25.4103 43.9668 25.4051 44.0303 25.4311C44.0938 25.457 44.1404 25.5123 44.1568 25.5793C44.1956 25.6916 44.1956 25.8137 44.1568 25.926C44.0821 26.0692 43.9919 26.2041 43.8887 26.3283ZM41.8446 27.9316H41.7284V27.9146V27.7573L41.7223 27.6156C41.716 27.5055 41.6979 27.3964 41.6682 27.2903L41.5741 26.9998L41.48 26.7736C41.4573 26.7256 41.4307 26.6795 41.4005 26.6357L41.2528 26.419L41.1837 26.3288C41.1766 26.3208 41.1757 26.3094 41.1804 26.3L41.2636 26.095L41.3822 25.7999C41.3887 25.781 41.3968 25.7627 41.4062 25.7451L41.4636 25.8207L41.6263 26.0511C41.6607 26.1078 41.6903 26.1668 41.7157 26.2277C41.7505 26.3071 41.7783 26.3892 41.8051 26.4714C41.8358 26.5606 41.8588 26.6522 41.8738 26.7453L41.9025 26.9021C41.9077 26.9432 41.91 26.9847 41.9114 27.0258L41.9175 27.312C41.9175 27.3658 41.91 27.4201 41.9058 27.4735L41.8964 27.5863C41.8931 27.6241 41.8841 27.6652 41.879 27.7049L41.8649 27.8055L41.847 27.9188L41.8446 27.9316Z" fill="#E95721"></path><path d="M28.4495 68.0896L28.8456 68.9996L29.8297 69.0988L29.0921 69.7599L29.3033 70.7313L28.45 70.2298L27.5956 70.7313L27.804 69.7599L27.0664 69.0988L28.0543 68.9996L28.4495 68.0896Z" fill="black"></path><path d="M27.8588 68.0901L28.2587 69.0001L29.2438 69.0993L28.5061 69.7604L28.7155 70.7318L27.8593 70.2303L27.0073 70.7322L27.2185 69.7609L26.479 69.0997L27.4641 69.0006L27.8588 68.0901Z" fill="#FEFEFE"></path><path d="M34.4796 68.0896L34.8766 68.9996L35.8645 69.0988L35.1241 69.7599L35.3344 70.7313L34.4819 70.2298L33.6267 70.7313L33.8389 69.7599L33.0984 69.0988L34.0835 68.9996L34.4796 68.0896Z" fill="black"></path><path d="M33.8929 68.0901L34.2918 69.0001L35.2769 69.0993L34.5365 69.7604L34.7477 70.7318L33.8934 70.2303L33.04 70.7322L33.2503 69.7609L32.5117 69.0997L33.4968 69.0006L33.8929 68.0901Z" fill="#FEFEFE"></path><path d="M40.5089 68.0894L40.9059 68.9994L41.8915 69.0985L41.151 69.7597L41.3623 70.731L40.5094 70.2295L39.6527 70.731L39.8653 69.7597L39.1277 69.0985L40.1109 68.9994L40.5089 68.0894Z" fill="black"></path><path d="M39.9256 68.0901L40.3226 69.0001L41.3077 69.0993L40.5672 69.7604L40.7794 70.7318L39.926 70.2303L39.0708 70.7322L39.2801 69.7609L38.5425 69.0997L39.5266 69.0006L39.9256 68.0901Z" fill="#FEFEFE"></path><path d="M46.4246 68.0894L46.8207 68.9994L47.8058 69.0985L47.0682 69.7597L47.2794 70.731L46.4251 70.2295L45.5698 70.731L45.7801 69.7597L45.0425 69.0985L46.0276 68.9994L46.4246 68.0894Z" fill="black"></path><path d="M45.9548 68.0898L46.3519 68.9998L47.337 69.099L46.5984 69.7601L46.8101 70.7315L45.9553 70.23L45.1001 70.732L45.3113 69.7606L44.5713 69.0995L45.5592 69.0003L45.9548 68.0898Z" fill="#FEFEFE"></path><path d="M52.5398 68.0894L52.9378 68.9994L53.9229 69.0985L53.1838 69.7597L53.3941 70.731L52.5403 70.2295L51.686 70.731L51.8977 69.7597L51.1567 69.0985L52.1423 68.9994L52.5398 68.0894Z" fill="black"></path><path d="M51.9456 68.0901L52.3427 69.0001L53.3306 69.0993L52.5901 69.7604L52.8014 70.7318L51.948 70.2303L51.0942 70.7322L51.303 69.7609L50.5645 69.0997L51.5524 69.0006L51.9456 68.0901Z" fill="#FEFEFE"></path><path d="M4.367 68.0896L4.76499 68.9996L5.75008 69.0988L5.0115 69.7599L5.22272 70.7313L4.36747 70.2298L3.51316 70.7313L3.72439 69.7599L2.98486 69.0988L3.97278 68.9996L4.367 68.0896Z" fill="black"></path><path d="M3.7728 68.0898L4.17173 68.9998L5.15635 69.099L4.41777 69.7601L4.62758 70.7315L3.77327 70.23L2.91943 70.732L3.13066 69.7606L2.3916 69.0995L3.37622 69.0003L3.7728 68.0898Z" fill="#FEFEFE"></path><path d="M10.3566 68.0896L10.7541 68.9996L11.742 69.0988L11.002 69.7599L11.2132 70.7313L10.3589 70.2298L9.50415 70.7313L9.71631 69.7599L8.97632 69.0988L9.96141 68.9996L10.3566 68.0896Z" fill="black"></path><path d="M9.88777 68.0901L10.2858 69.0001L11.2709 69.0993L10.5327 69.7604L10.7435 70.7318L9.88824 70.2303L9.03487 70.7322L9.24516 69.7609L8.5061 69.0997L9.49167 69.0006L9.88777 68.0901Z" fill="#FEFEFE"></path><path d="M16.3863 68.0896L16.7839 68.9996L17.769 69.0988L17.0308 69.7599L17.2416 70.7313L16.3868 70.2298L15.5334 70.7313L15.7437 69.7599L15.0056 69.0988L15.9907 68.9996L16.3863 68.0896Z" fill="black"></path><path d="M15.8011 68.0901L16.1986 69.0001L17.1827 69.0993L16.4446 69.7604L16.6558 70.7318L15.8015 70.2303L14.9468 70.7322L15.158 69.7609L14.4185 69.0997L15.4064 69.0006L15.8011 68.0901Z" fill="#FEFEFE"></path><path d="M22.4171 68.0896L22.8146 68.9996L23.7992 69.0988L23.0611 69.7599L23.2737 70.7313L22.4176 70.2298L21.5651 70.7313L21.7749 69.7599L21.0359 69.0988L22.021 68.9996L22.4171 68.0896Z" fill="black"></path><path d="M21.834 68.0901L22.2296 69.0001L23.2147 69.0993L22.4766 69.7604L22.6878 70.7318L21.8344 70.2303L20.9792 70.7322L21.1895 69.7609L20.4495 69.0997L21.4374 69.0006L21.834 68.0901Z" fill="#FEFEFE"></path><path fill-rule="evenodd" clip-rule="evenodd" d="M2.33263 80.4333L3.88506 77.0639H4.31128L2.33545 81.2195L0.359619 77.0639H0.787245L2.33263 80.4333ZM6.82199 77.0634V81.1071H6.4527V77.0634H6.82199ZM7.00687 75.9966C7.00922 76.0958 6.97018 76.1916 6.89914 76.2606C6.82963 76.3292 6.73603 76.3677 6.63852 76.3677C6.54101 76.3677 6.44741 76.3292 6.3779 76.2606C6.34269 76.2265 6.31493 76.1854 6.29639 76.14C6.27784 76.0945 6.26891 76.0457 6.27017 75.9966C6.26782 75.8988 6.30686 75.8044 6.3779 75.7369C6.52279 75.5952 6.75425 75.5952 6.89914 75.7369C6.93405 75.7703 6.96165 75.8107 6.9802 75.8554C6.99874 75.9001 7.00782 75.9482 7.00687 75.9966ZM10.3615 79.0284C10.1257 78.9117 9.9059 78.7649 9.70764 78.5915C9.5728 78.4557 9.48097 78.2829 9.44367 78.0948C9.40637 77.9067 9.42528 77.7118 9.49802 77.5345C9.57076 77.3572 9.69408 77.2054 9.85249 77.0982C10.0109 76.991 10.1973 76.9332 10.3884 76.9321C10.6368 76.9241 10.8776 77.0195 11.0536 77.1956C11.1333 77.2716 11.1969 77.3628 11.2407 77.464C11.2845 77.5652 11.3076 77.6742 11.3085 77.7845V77.8048L10.9872 77.9328C10.9745 77.7594 10.9063 77.5948 10.7929 77.4634C10.6857 77.3571 10.5389 77.3004 10.3884 77.3071C10.2698 77.3066 10.1538 77.3415 10.0551 77.4074C9.95645 77.4733 9.87951 77.5672 9.83412 77.6771C9.78872 77.787 9.77693 77.908 9.80023 78.0247C9.82353 78.1414 9.88087 78.2484 9.96497 78.3323C10.0995 78.4503 10.2453 78.5552 10.3997 78.6454C10.6695 78.782 10.9205 78.9533 11.1462 79.1549C11.6115 79.6253 11.6115 80.3846 11.1462 80.855C10.9223 81.0807 10.6179 81.2073 10.3009 81.2073C9.98379 81.2073 9.67941 81.0807 9.45549 80.855C9.34836 80.7566 9.26223 80.6375 9.20231 80.5048C9.14239 80.3721 9.10993 80.2285 9.10689 80.0829L9.47195 79.9884C9.46631 80.2156 9.55522 80.4342 9.71658 80.5933C9.8721 80.7491 10.0829 80.8366 10.3026 80.8363C10.4114 80.8362 10.5191 80.8146 10.6196 80.7727C10.7201 80.7308 10.8113 80.6695 10.8882 80.5922C10.9651 80.5149 11.026 80.4231 11.0675 80.3222C11.109 80.2212 11.1304 80.1131 11.1303 80.0039C11.1302 79.8947 11.1086 79.7865 11.0669 79.6857C11.0251 79.5848 10.964 79.4932 10.887 79.4161C10.7228 79.2711 10.546 79.1417 10.3578 79.0298L10.3615 79.0284ZM18.0677 81.1076H17.697V80.2845C17.6251 80.382 17.5465 80.4743 17.4618 80.5608C16.8169 81.2082 15.8473 81.4023 15.0043 81.0519C14.1613 80.7015 13.6118 79.876 13.6118 78.9608C13.6117 78.5131 13.7439 78.0753 13.9918 77.7031C14.2397 77.3309 14.5921 77.0408 15.0043 76.8698C15.8473 76.5198 16.8169 76.7135 17.4618 77.3609C17.5466 77.447 17.6252 77.539 17.697 77.6362V77.0657H18.0677V81.1076ZM17.697 79.3292V78.5953C17.6064 78.1454 17.3525 77.7453 16.9845 77.4727C16.6166 77.2002 16.1609 77.0746 15.7059 77.1203C15.2508 77.166 14.829 77.3798 14.5221 77.7202C14.2153 78.0605 14.0454 78.5032 14.0454 78.9622C14.0454 79.4213 14.2153 79.8639 14.5221 80.2043C14.829 80.5447 15.2508 80.7585 15.7059 80.8042C16.1609 80.8499 16.6166 80.7243 16.9845 80.4517C17.3525 80.1792 17.6064 79.7791 17.697 79.3292ZM21.215 80.3497C21.5512 80.6643 21.9959 80.8357 22.4555 80.8276C22.9509 80.8356 23.4279 80.6373 23.7727 80.2803L23.903 80.1357L24.2944 80.2774C24.2203 80.3775 24.1392 80.4722 24.0517 80.5608C23.195 81.415 21.8195 81.4391 20.9341 80.6151C20.0488 79.791 19.9683 78.4121 20.7525 77.4903C21.1301 77.0469 21.6637 76.7672 22.2419 76.7093C22.8201 76.6515 23.3982 76.8202 23.8555 77.18L24.0522 77.3614C24.078 77.3859 24.0992 77.4109 24.1218 77.4355L23.8433 77.7155L21.215 80.3497ZM23.5709 77.4629C23.2121 77.1965 22.77 77.0683 22.325 77.1015C21.8799 77.1347 21.4616 77.3272 21.146 77.644C20.8304 77.9607 20.6386 78.3806 20.6054 78.8274C20.5722 79.2741 20.6999 79.7179 20.9652 80.0781L23.5709 77.4629ZM26.449 77.0629H26.8188V77.8001C26.8983 77.6867 26.9877 77.581 27.0855 77.4832C27.342 77.1903 27.6999 77.0065 28.0866 76.9689V77.3722C27.8058 77.4076 27.5484 77.5469 27.3645 77.7632C27.1952 77.9259 27.0597 78.1207 26.9661 78.3363C26.8724 78.552 26.8223 78.7842 26.8188 79.0194V81.1081H26.449V77.0629ZM32.0096 76.6969C32.5323 76.6956 33.0392 76.8763 33.444 77.2083C33.8488 77.5403 34.1263 78.0029 34.2292 78.5173C34.3321 79.0317 34.2541 79.5661 34.0084 80.0292C33.7627 80.4923 33.3645 80.8555 32.8819 81.0568C32.3992 81.2582 31.8619 81.2852 31.3616 81.1333C30.8613 80.9814 30.4289 80.66 30.1384 80.2238C29.8478 79.7877 29.7169 79.2639 29.7681 78.7417C29.8193 78.2195 30.0493 77.7313 30.419 77.3604C30.8354 76.9288 31.4112 76.6884 32.0096 76.6969ZM30.1476 78.9637C30.1476 79.3963 30.297 79.8156 30.5704 80.15C30.8438 80.4845 31.2242 80.7135 31.6469 80.7979C32.0697 80.8823 32.5085 80.817 32.8886 80.6131C33.2687 80.4092 33.5666 80.0792 33.7316 79.6795C33.8965 79.2798 33.9183 78.8351 33.7933 78.4211C33.6682 78.007 33.4039 77.6493 33.0456 77.409C32.6872 77.1686 32.2569 77.0603 31.828 77.1027C31.3991 77.1451 30.9981 77.3355 30.6933 77.6414C30.5168 77.8121 30.3772 78.0175 30.2833 78.2447C30.1894 78.472 30.1432 78.7163 30.1476 78.9622V78.9637ZM36.6655 80.795C36.6678 80.8942 36.6288 80.9896 36.5573 81.058C36.4133 81.2016 36.1805 81.2016 36.0365 81.058C35.9849 81.0065 35.9498 80.9408 35.9355 80.8692C35.9212 80.7976 35.9284 80.7234 35.9563 80.656C35.9841 80.5885 36.0313 80.5309 36.0918 80.4904C36.1523 80.4499 36.2234 80.4284 36.2962 80.4285C36.3447 80.4276 36.393 80.4367 36.438 80.4551C36.4829 80.4735 36.5237 80.501 36.5577 80.5357C36.5926 80.5691 36.6202 80.6094 36.6387 80.654C36.6572 80.6986 36.6664 80.7466 36.6655 80.795ZM42.3253 80.1348L42.7143 80.2765C42.6407 80.3771 42.5594 80.4719 42.4711 80.5598C42.156 80.8767 41.7542 81.0926 41.3167 81.1802C40.8792 81.2677 40.4257 81.2229 40.0136 81.0514C39.1705 80.701 38.6211 79.8755 38.6211 78.9599C38.6211 78.0442 39.1705 77.2187 40.0136 76.8683C40.4257 76.6969 40.8792 76.6521 41.3167 76.7396C41.7542 76.8271 42.156 77.043 42.4711 77.3599C42.5592 77.4469 42.6405 77.5406 42.7143 77.64L42.3253 77.7845L42.1936 77.6367C41.8441 77.2866 41.3705 77.09 40.8768 77.0902C40.3831 77.0904 39.9097 77.2873 39.5605 77.6376C39.2116 77.9883 39.0157 78.4636 39.0157 78.9592C39.0157 79.4548 39.2116 79.9301 39.5605 80.2807C39.9097 80.6311 40.3831 80.828 40.8768 80.8282C41.3705 80.8283 41.8441 80.6318 42.1936 80.2817L42.3253 80.1348ZM46.7601 76.6969C47.8364 76.696 48.7632 77.4586 48.9739 78.5183C49.1847 79.578 48.6202 80.6392 47.6257 81.0528C46.6312 81.4665 45.4847 81.118 44.8863 80.2198C44.2879 79.3216 44.4055 78.1245 45.1662 77.3604C45.3727 77.1465 45.6206 76.9772 45.8948 76.8631C46.1689 76.749 46.4634 76.6924 46.7601 76.6969ZM44.8957 78.9637C44.8957 79.3963 45.0451 79.8156 45.3185 80.15C45.5919 80.4845 45.9724 80.7135 46.3951 80.7979C46.8178 80.8823 47.2566 80.817 47.6367 80.6131C48.0168 80.4092 48.3148 80.0792 48.4797 79.6795C48.6447 79.2798 48.6665 78.8351 48.5414 78.4211C48.4163 78.007 48.1521 77.6493 47.7937 77.409C47.4354 77.1686 47.0051 77.0603 46.5762 77.1027C46.1472 77.1451 45.7462 77.3355 45.4414 77.6414C45.2654 77.8124 45.1261 78.0179 45.0323 78.2451C44.9384 78.4722 44.8919 78.7163 44.8957 78.9622V78.9637ZM51.2391 77.0639H51.6093V77.1583C51.7366 77.0348 51.8898 76.9413 52.0576 76.8847C52.2255 76.8281 52.4038 76.8099 52.5795 76.8312C52.7553 76.8526 52.9241 76.913 53.0737 77.0082C53.2232 77.1033 53.3498 77.2307 53.444 77.3812C53.4929 77.3071 53.5494 77.2376 53.612 77.1748C53.8367 76.9508 54.1406 76.825 54.4573 76.825C54.7741 76.825 55.078 76.9508 55.3027 77.1748C55.5201 77.3893 55.6452 77.6807 55.6513 77.9866V81.1086H55.2811V77.9866H55.2858C55.2557 77.5385 54.877 77.1951 54.4296 77.2107C53.9822 77.2263 53.628 77.5951 53.6289 78.0442V81.1086H53.261V77.9866H53.2638C53.2436 77.5422 52.8776 77.1932 52.4345 77.1961C52.0073 77.198 51.6512 77.5248 51.6112 77.9517V81.1071H51.241L51.2391 77.0639Z" fill="#646262"></path></g><defs><clipPath id="clip0_289_3757"><rect width="56.1385" height="62.4462" fill="white" transform="translate(0 18.7769)"></rect></clipPath></defs></svg>